<svg version="1.1" viewBox="0 0 100 100" xmlns="http://www.w3.org/2000/svg">
 <g stroke-width="4.1667">
  <path d="m4.5561-135.03h-3.9338l-2.145 11.033h3.4905c2.3174 0 4.0421-0.43742 5.1757-1.3084 1.1338-0.875 1.8955-2.329 2.2917-4.3708 0.3847-1.9583 0.20411-3.3416-0.5174-4.1458-0.72875-0.80416-2.1788-1.2084-4.3618-1.2084zm20.791-18.829c-27.612 0-50 11.775-50 26.3s22.388 26.304 50 26.304c27.612 0 50-11.779 50-26.304s-22.388-26.3-50-26.3zm-13.583 31.046c-1.0869 1.0416-2.3964 1.825-3.8207 2.2958-1.4 0.45-3.1875 0.68338-5.3545 0.68338h-4.9212l-1.3618 7.004h-5.7418l5.1248-26.358h11.042c3.3207 0 5.742 0.87083 7.2667 2.6166 1.5253 1.7416 1.9833 4.175 1.3753 7.3a11.817 11.817 0 0 1-1.2712 3.5292c-0.59552 1.0624-1.3743 2.0416-2.3373 2.9292zm16.767 2.9792 2.2627-11.663c0.26413-1.325 0.16422-2.2334-0.28437-2.7124-0.44542-0.48338-1.4-0.725-2.8618-0.725h-4.55l-2.9336 15.104h-5.7l5.1247-26.362h5.6958l-1.3626 7.0084h5.0756c3.1955 0 5.3955 0.55826 6.6082 1.6708 1.2121 1.1125 1.5748 2.9166 1.0954 5.4125l-2.3833 12.267zm31.654-9.4376a11.592 11.592 0 0 1-1.271 3.5292c-0.59644 1.0624-1.3752 2.0416-2.3369 2.9292a10.167 10.167 0 0 1-3.8212 2.2958c-1.4 0.45-3.1882 0.68338-5.3585 0.68338h-4.9167l-1.3631 7.0083h-5.7405l5.1243-26.358h11.037c3.3208 0 5.7418 0.87079 7.267 2.6166 1.5248 1.7374 1.9875 4.1708 1.3792 7.2958zm-10.813-5.7584h-3.9288l-2.15 11.033h3.4917c2.3208 0 4.0457-0.43742 5.1747-1.3084 1.1336-0.875 1.8962-2.329 2.2962-4.3708 0.38456-1.9583 0.20214-3.3416-0.52085-4.1458-0.7253-0.80416-2.1836-1.2084-4.3629-1.2084z" fill="#777bb4"/>
  <path d="m180.04-162.67h100v100h-100zm91.808 76.15c-0.72875-4.5625-3.7-8.3958-12.513-11.971-3.0662-1.4375-6.4757-2.4375-7.4875-4.75-0.38085-1.375-0.43825-2.125-0.19606-2.9375 0.62491-2.6917 3.8127-3.5 6.3127-2.75 1.6248 0.5 3.1248 1.75 4.0667 3.75 4.3081-2.8167 4.3081-2.8167 7.3125-4.6875-1.1251-1.75-1.6836-2.5042-2.4419-3.25-2.6251-2.9375-6.1206-4.4375-11.808-4.3083l-2.9376 0.37075c-2.8167 0.68742-5.5 2.1874-7.1248 4.1874-4.75 5.3792-3.3794 14.754 2.3706 18.629 5.6875 4.25 14.004 5.1833 15.067 9.1875 1 4.875-3.6249 6.4375-8.1919 5.875-3.3793-0.75-5.25-2.4417-7.3122-5.5667l-7.6252 4.3792c0.87523 2 1.8752 2.8708 3.3752 4.6208 7.25 7.3167 25.375 6.9417 28.629-4.1833 0.11973-0.37507 1-2.9375 0.30595-6.875zm-37.429-30.188h-9.3674c0 8.075-0.011 16.1-0.011 24.188 0 5.1333 0.26373 9.8458-0.57511 11.296-1.3749 2.8708-4.9167 2.5042-6.5249 2-1.65-0.8167-2.4874-1.9417-3.4582-3.5625-0.26343-0.43748-0.45846-0.81666-0.52918-0.81666l-7.6044 4.6875c1.2708 2.625 3.1252 4.8833 5.5167 6.3208 3.5626 2.125 8.35 2.8125 13.363 1.6875 3.2625-0.94162 6.0751-2.8791 7.5458-5.8791 2.1248-3.875 1.6748-8.625 1.6542-13.942 0.0478-8.5583 0-17.121 0-25.746z" fill="#f7df1e"/>
  <path d="m553.38-160.47c12.637 2.1874 16.221 10.825 15.954 19.875l0.063-0.12969-5.6872 74.533-73.937 5.0667h0.0669c-6.1386-0.25796-19.818-0.82038-20.443-19.945l6.8541-12.5 11.746 27.442 2.096 4.8833 11.687-38.1-0.12381 0.0286 0.0669-0.12515 38.562 12.317-5.8166-22.629-4.1248-16.25 36.75-2.3708-2.5629-2.125-26.383-21.508 15.246-8.5042zm-83.983 79.192m21.375-58.4c14.837-14.721 33.987-23.421 41.341-16 7.3418 7.4042-0.43694 25.437-15.304 40.15-14.846 14.717-33.762 23.892-41.1 16.487-7.3583-7.4041 0.18862-25.904 15.05-40.625z" fill="#cc342d"/>
  <path d="m6.25 5e-7h87.5l-7.9585 89.846-35.887 10.154-35.687-10.158zm71.208 18.387-54.917-0.0103 0.88825 10.925 42.187 3e-3 -1.0627 11.317h-27.666l1 10.721h25.758l-1.5257 14.679-12.124 3.35-12.316-3.375-0.78377-8.7917h-10.876l1.2095 16.063 22.77 7.0958 22.388-6.375 5.0708-55.6z" fill="#1572b6"/>
 </g>
</svg>
