<svg version="1.1" viewBox="0 0 100 100" xmlns="http://www.w3.org/2000/svg">
 <path d="m29.208 42.527h-3.9338l-2.145 11.033h3.4905c2.3174 0 4.0421-0.43742 5.1757-1.3084 1.1338-0.875 1.8955-2.329 2.2917-4.3708 0.3847-1.9583 0.20411-3.3416-0.5174-4.1458-0.72875-0.80416-2.1788-1.2084-4.3618-1.2084zm20.792-18.829c-27.612 0-50 11.775-50 26.3s22.388 26.304 50 26.304 50-11.779 50-26.304-22.388-26.3-50-26.3zm-13.583 31.046c-1.0869 1.0416-2.3964 1.825-3.8207 2.2958-1.4 0.45-3.1875 0.68338-5.3545 0.68338h-4.9212l-1.3618 7.004h-5.7418l5.1248-26.358h11.042c3.3207 0 5.742 0.87083 7.2667 2.6166 1.5253 1.7416 1.9833 4.175 1.3753 7.3a11.817 11.817 0 0 1-1.2712 3.5292c-0.59552 1.0624-1.3743 2.0416-2.3373 2.9292zm16.767 2.9792 2.2627-11.663c0.26413-1.325 0.16422-2.2334-0.28437-2.7124-0.44542-0.48338-1.4-0.725-2.8618-0.725h-4.55l-2.9336 15.104h-5.7l5.1247-26.362h5.6958l-1.3626 7.0084h5.0756c3.1955 0 5.3955 0.55826 6.6082 1.6708 1.2121 1.1125 1.5748 2.9166 1.0954 5.4125l-2.3833 12.267zm31.654-9.4376a11.592 11.592 0 0 1-1.271 3.5292c-0.59644 1.0624-1.3752 2.0416-2.3369 2.9292a10.167 10.167 0 0 1-3.8212 2.2958c-1.4 0.45-3.1882 0.68338-5.3585 0.68338h-4.9167l-1.3631 7.0083h-5.7405l5.1243-26.358h11.037c3.3208 0 5.7418 0.87079 7.267 2.6166 1.5248 1.7374 1.9875 4.1708 1.3792 7.2958zm-10.813-5.7584h-3.9288l-2.15 11.033h3.4917c2.3208 0 4.0457-0.43742 5.1747-1.3084 1.1336-0.875 1.8962-2.329 2.2962-4.3708 0.38456-1.9583 0.20214-3.3416-0.52085-4.1458-0.7253-0.80416-2.1836-1.2084-4.3629-1.2084z" fill="#777bb4" stroke-width="4.1667"/>
 <path d="m553.38-160.47c12.637 2.1874 16.221 10.825 15.954 19.875l0.063-0.12969-5.6872 74.533-73.937 5.0667h0.0669c-6.1386-0.25796-19.818-0.82038-20.443-19.945l6.8541-12.5 11.746 27.442 2.096 4.8833 11.687-38.1-0.12381 0.0286 0.0669-0.12515 38.562 12.317-5.8166-22.629-4.1248-16.25 36.75-2.3708-2.5629-2.125-26.383-21.508 15.246-8.5042zm-83.983 79.192m21.375-58.4c14.837-14.721 33.987-23.421 41.341-16 7.3418 7.4042-0.43694 25.437-15.304 40.15-14.846 14.717-33.762 23.892-41.1 16.487-7.3583-7.4041 0.18862-25.904 15.05-40.625z" fill="#cc342d" stroke-width="4.1667"/>
</svg>
