<svg version="1.1" viewBox="0 0 100 100" xmlns="http://www.w3.org/2000/svg">
 <path d="m83.983 0.34855c12.637 2.1874 16.221 10.825 15.954 19.875l0.06301-0.12969-5.6872 74.533-73.937 5.0667h0.0669c-6.1386-0.25796-19.818-0.82038-20.443-19.945l6.8541-12.5 11.746 27.442 2.096 4.8833 11.687-38.1-0.12381 0.0286 0.0669-0.12515 38.562 12.317-5.8166-22.629-4.1248-16.25 36.75-2.3708-2.5629-2.125-26.383-21.508 15.246-8.5042zm-83.983 79.192m21.375-58.4c14.837-14.721 33.987-23.421 41.341-16 7.3418 7.4042-0.43694 25.437-15.304 40.15-14.846 14.717-33.762 23.892-41.1 16.487-7.3583-7.4041 0.18862-25.904 15.05-40.625z" fill="#cc342d" stroke-width="4.1667"/>
</svg>
